<svg xmlns="http://www.w3.org/2000/svg" viewBox="0 0 512 512">
  <defs>
    <linearGradient id="bg" x1="0%" y1="0%" x2="100%" y2="100%">
      <stop offset="0%" style="stop-color:#2d2418"/>
      <stop offset="100%" style="stop-color:#1a1510"/>
    </linearGradient>
    <linearGradient id="gold" x1="0%" y1="0%" x2="100%" y2="100%">
      <stop offset="0%" style="stop-color:#e8d5b0"/>
      <stop offset="100%" style="stop-color:#c9a86c"/>
    </linearGradient>
  </defs>
  
  <!-- Background -->
  <rect width="512" height="512" rx="80" fill="url(#bg)"/>
  
  <!-- Zen Circle -->
  <circle cx="256" cy="180" r="60" fill="none" stroke="url(#gold)" stroke-width="6" opacity="0.6"/>
  <circle cx="256" cy="180" r="8" fill="#c9a86c"/>
  
  <!-- Tetris Blocks -->
  <!-- L piece -->
  <rect x="156" y="280" width="50" height="50" rx="6" fill="#c9a86c"/>
  <rect x="156" y="330" width="50" height="50" rx="6" fill="#c9a86c"/>
  <rect x="206" y="330" width="50" height="50" rx="6" fill="#c9a86c"/>
  
  <!-- T piece -->
  <rect x="276" y="280" width="50" height="50" rx="6" fill="#8b7355"/>
  <rect x="276" y="330" width="50" height="50" rx="6" fill="#8b7355"/>
  <rect x="326" y="330" width="50" height="50" rx="6" fill="#8b7355"/>
  <rect x="226" y="330" width="50" height="50" rx="6" fill="#8b7355" opacity="0.5"/>
  
  <!-- Bottom blocks -->
  <rect x="156" y="400" width="50" height="50" rx="6" fill="#a89076"/>
  <rect x="206" y="400" width="50" height="50" rx="6" fill="#b5a18e"/>
  <rect x="256" y="400" width="50" height="50" rx="6" fill="#9c8b7a"/>
  <rect x="306" y="400" width="50" height="50" rx="6" fill="#7a6b5a"/>
</svg>
