<svg xmlns="http://www.w3.org/2000/svg" viewBox="0 0 1200 630">
  <defs>
    <linearGradient id="bg" x1="0%" y1="0%" x2="100%" y2="100%">
      <stop offset="0%" style="stop-color:#1a1510"/>
      <stop offset="50%" style="stop-color:#2d2418"/>
      <stop offset="100%" style="stop-color:#1a1510"/>
    </linearGradient>
    <linearGradient id="gold" x1="0%" y1="0%" x2="100%" y2="100%">
      <stop offset="0%" style="stop-color:#e8d5b0"/>
      <stop offset="100%" style="stop-color:#c9a86c"/>
    </linearGradient>
  </defs>
  
  <!-- Background -->
  <rect width="1200" height="630" fill="url(#bg)"/>
  
  <!-- Decorative border -->
  <rect x="20" y="20" width="1160" height="590" rx="10" fill="none" stroke="#c9a86c" stroke-width="2" opacity="0.3"/>
  
  <!-- Zen Circle -->
  <circle cx="600" cy="200" r="80" fill="none" stroke="url(#gold)" stroke-width="4" opacity="0.8"/>
  <circle cx="600" cy="200" r="10" fill="#c9a86c"/>
  
  <!-- Title -->
  <text x="600" y="340" font-family="Georgia, serif" font-size="72" fill="#c9a86c" text-anchor="middle" letter-spacing="12">ZEN TETRIS</text>
  
  <!-- Subtitle -->
  <text x="600" y="400" font-family="Georgia, serif" font-size="28" fill="#8b7355" text-anchor="middle" font-style="italic">A moment of calm</text>
  
  <!-- Tetris blocks decoration -->
  <!-- Left side -->
  <rect x="100" y="450" width="40" height="40" rx="4" fill="#c9a86c" opacity="0.8"/>
  <rect x="140" y="450" width="40" height="40" rx="4" fill="#c9a86c" opacity="0.8"/>
  <rect x="100" y="490" width="40" height="40" rx="4" fill="#c9a86c" opacity="0.8"/>
  <rect x="100" y="530" width="40" height="40" rx="4" fill="#c9a86c" opacity="0.8"/>
  
  <rect x="200" y="490" width="40" height="40" rx="4" fill="#8b7355" opacity="0.6"/>
  <rect x="240" y="490" width="40" height="40" rx="4" fill="#8b7355" opacity="0.6"/>
  <rect x="240" y="530" width="40" height="40" rx="4" fill="#8b7355" opacity="0.6"/>
  <rect x="280" y="530" width="40" height="40" rx="4" fill="#8b7355" opacity="0.6"/>
  
  <!-- Right side -->
  <rect x="1020" y="450" width="40" height="40" rx="4" fill="#a89076" opacity="0.8"/>
  <rect x="1060" y="450" width="40" height="40" rx="4" fill="#a89076" opacity="0.8"/>
  <rect x="1060" y="490" width="40" height="40" rx="4" fill="#a89076" opacity="0.8"/>
  <rect x="1060" y="530" width="40" height="40" rx="4" fill="#a89076" opacity="0.8"/>
  
  <rect x="920" y="490" width="40" height="40" rx="4" fill="#b5a18e" opacity="0.6"/>
  <rect x="920" y="530" width="40" height="40" rx="4" fill="#b5a18e" opacity="0.6"/>
  <rect x="880" y="530" width="40" height="40" rx="4" fill="#b5a18e" opacity="0.6"/>
  
  <!-- Tagline -->
  <text x="600" y="560" font-family="Georgia, serif" font-size="22" fill="#6b5d4d" text-anchor="middle">Mindful gaming " Breathing exercises " Find your peace</text>
</svg>
