<svg xmlns="http://www.w3.org/2000/svg" viewBox="0 0 180 180">
  <defs>
    <linearGradient id="bg" x1="0%" y1="0%" x2="100%" y2="100%">
      <stop offset="0%" style="stop-color:#2d2418"/>
      <stop offset="100%" style="stop-color:#1a1510"/>
    </linearGradient>
  </defs>
  
  <!-- Background -->
  <rect width="180" height="180" rx="28" fill="url(#bg)"/>
  
  <!-- Zen Circle -->
  <circle cx="90" cy="55" r="22" fill="none" stroke="#c9a86c" stroke-width="2.5"/>
  <circle cx="90" cy="55" r="3" fill="#c9a86c"/>
  
  <!-- Tetris Blocks -->
  <rect x="50" y="90" width="20" height="20" rx="3" fill="#c9a86c"/>
  <rect x="50" y="110" width="20" height="20" rx="3" fill="#c9a86c"/>
  <rect x="70" y="110" width="20" height="20" rx="3" fill="#c9a86c"/>
  
  <rect x="100" y="90" width="20" height="20" rx="3" fill="#8b7355"/>
  <rect x="100" y="110" width="20" height="20" rx="3" fill="#8b7355"/>
  <rect x="120" y="110" width="20" height="20" rx="3" fill="#8b7355"/>
  
  <rect x="50" y="140" width="20" height="20" rx="3" fill="#a89076"/>
  <rect x="70" y="140" width="20" height="20" rx="3" fill="#b5a18e"/>
  <rect x="90" y="140" width="20" height="20" rx="3" fill="#9c8b7a"/>
  <rect x="110" y="140" width="20" height="20" rx="3" fill="#7a6b5a"/>
</svg>
